
<svg xmlns="http://www.w3.org/2000/svg" version="1.1" xmlns:xlink="http://www.w3.org/1999/xlink" preserveAspectRatio="none" x="0px" y="0px" width="128px" height="128px" viewBox="0 0 128 128">
<defs>
<g id="torso_0_Layer0_0_FILL">
<path fill="#999999" stroke="none" d="
M 30.55 -22.15
Q 17.9 -31.35 0 -31.35 -14.4 -31.35 -25.35 -25.4 -28.05 -24 -30.55 -22.15 -43.2 -13 -43.2 0 -43.2 13 -30.55 22.15 -17.9 31.35 0 31.35 17.9 31.35 30.55 22.15 43.2 13 43.2 0 43.2 -3.45 42.35 -6.65 39.8 -15.45 30.55 -22.15 Z"/>
</g>

<path id="torso_0_Layer0_0_1_STROKES" stroke="#000000" stroke-width="8" stroke-linejoin="round" stroke-linecap="round" fill="none" d="
M 43.2 0
Q 43.2 13 30.55 22.15 17.9 31.35 0 31.35 -17.9 31.35 -30.55 22.15 -43.2 13 -43.2 0 -43.2 -13 -30.55 -22.15 -28.05 -24 -25.35 -25.4 -14.4 -31.35 0 -31.35 17.9 -31.35 30.55 -22.15 39.8 -15.45 42.35 -6.65 43.2 -3.45 43.2 0 Z"/>
</defs>

<g transform="matrix( 1, 0, 0, 1, 64,64) ">
<g transform="matrix( 1, 0, 0, 1, 0,0) ">
<use xlink:href="#torso_0_Layer0_0_FILL"/>

<use xlink:href="#torso_0_Layer0_0_1_STROKES"/>
</g>
</g>
</svg>
