
<svg xmlns="http://www.w3.org/2000/svg" version="1.1" xmlns:xlink="http://www.w3.org/1999/xlink" preserveAspectRatio="none" x="0px" y="0px" width="128px" height="128px" viewBox="0 0 128 128">
<defs>
<g id="arm_0_Layer0_0_FILL">
<path fill="#666666" stroke="none" d="
M 36 -7.05
Q 29.6 -8.6 23.7 -9.5 -9.85 -14.4 -9.8 0 -9.85 14.35 23.6 9.6 29.55 8.7 35.95 7.1 41.6 5.65 44.4 3.55 45.65 2.55 46.15 1.5 46.55 0.8 46.6 0.1 46.6 -0.7 46.2 -1.4 45.75 -2.5 44.4 -3.4 41.65 -5.6 36 -7.05 Z"/>
</g>

<path id="arm_0_Layer0_0_1_STROKES" stroke="#000000" stroke-width="9" stroke-linejoin="round" stroke-linecap="round" fill="none" d="
M 44.4 3.55
Q 45.65 2.55 46.15 1.5 46.55 0.8 46.6 0.1 46.6 -0.7 46.2 -1.4 45.75 -2.5 44.4 -3.4 41.65 -5.6 36 -7.05 29.6 -8.6 23.7 -9.5 -9.85 -14.4 -9.8 0 -9.85 14.35 23.6 9.6 29.55 8.7 35.95 7.1 41.6 5.65 44.4 3.55 Z"/>
</defs>

<g transform="matrix( 1, 0, 0, 1, 64,64) ">
<g transform="matrix( 1, 0, 0, 1, 0,0) ">
<use xlink:href="#arm_0_Layer0_0_FILL"/>

<use xlink:href="#arm_0_Layer0_0_1_STROKES"/>
</g>
</g>
</svg>
