
<svg xmlns="http://www.w3.org/2000/svg" version="1.1" xmlns:xlink="http://www.w3.org/1999/xlink" preserveAspectRatio="none" x="0px" y="0px" width="128px" height="128px" viewBox="0 0 128 128">
<defs>
<g id="head_0_Layer0_0_FILL">
<path fill="#FFCC00" stroke="none" d="
M 29.4 -29.4
Q 17.2 -41.6 0 -41.6 -17.25 -41.6 -29.4 -29.4 -41.6 -17.2 -41.6 0 -41.6 2.5 -41.35 4.95 -39.85 19 -29.4 29.4 -17.25 41.6 0 41.6 17.2 41.6 29.4 29.4 30.5 28.3 31.6 27.1 41.6 15.6 41.6 0 41.6 -17.2 29.4 -29.4 Z"/>
</g>

<path id="head_0_Layer0_0_1_STROKES" stroke="#000000" stroke-width="8" stroke-linejoin="round" stroke-linecap="round" fill="none" d="
M 41.6 0
Q 41.6 15.6 31.6 27.1 30.5 28.3 29.4 29.4 17.2 41.6 0 41.6 -17.25 41.6 -29.4 29.4 -39.85 19 -41.35 4.95 -41.6 2.5 -41.6 0 -41.6 -17.2 -29.4 -29.4 -17.25 -41.6 0 -41.6 17.2 -41.6 29.4 -29.4 41.6 -17.2 41.6 0 Z"/>
</defs>

<g transform="matrix( 1, 0, 0, 1, 64,64) ">
<g transform="matrix( 1, 0, 0, 1, 0,0) ">
<use xlink:href="#head_0_Layer0_0_FILL"/>

<use xlink:href="#head_0_Layer0_0_1_STROKES"/>
</g>
</g>
</svg>
